<mxfile host="65bd71144e">
    <diagram id="kmuDzgQPOymyvbIrG2bL" name="第 1 页">
        <mxGraphModel dx="712" dy="562" grid="1" gridSize="10" guides="1" tooltips="1" connect="1" arrows="1" fold="1" page="1" pageScale="1" pageWidth="827" pageHeight="1169" math="0" shadow="0">
            <root>
                <mxCell id="0"/>
                <mxCell id="1" parent="0"/>
                <mxCell id="2" value="" style="shape=flexArrow;endArrow=classic;html=1;fillColor=#fff2cc;strokeColor=#d6b656;" parent="1" edge="1">
                    <mxGeometry width="50" height="50" relative="1" as="geometry">
                        <mxPoint x="130" y="130" as="sourcePoint"/>
                        <mxPoint x="720" y="130" as="targetPoint"/>
                    </mxGeometry>
                </mxCell>
                <mxCell id="3" value="now" style="rounded=0;whiteSpace=wrap;html=1;fillColor=#1ba1e2;strokeColor=#006EAF;fontColor=#ffffff;" parent="1" vertex="1">
                    <mxGeometry x="404" y="80" width="50" height="40" as="geometry"/>
                </mxCell>
                <mxCell id="4" value="nextRequestTime" style="rounded=0;whiteSpace=wrap;html=1;dashed=1;" parent="1" vertex="1">
                    <mxGeometry x="510" y="140" width="120" height="40" as="geometry"/>
                </mxCell>
                <mxCell id="6" value="" style="shape=flexArrow;endArrow=classic;html=1;fillColor=#fff2cc;strokeColor=#d6b656;" parent="1" edge="1">
                    <mxGeometry width="50" height="50" relative="1" as="geometry">
                        <mxPoint x="137" y="410" as="sourcePoint"/>
                        <mxPoint x="727" y="410" as="targetPoint"/>
                    </mxGeometry>
                </mxCell>
                <mxCell id="7" value="now" style="rounded=0;whiteSpace=wrap;html=1;fillColor=#1ba1e2;fontColor=#ffffff;strokeColor=#006EAF;" parent="1" vertex="1">
                    <mxGeometry x="404" y="360" width="50" height="40" as="geometry"/>
                </mxCell>
                <mxCell id="10" value="slack" style="rounded=0;whiteSpace=wrap;html=1;" parent="1" vertex="1">
                    <mxGeometry x="313" y="440" width="190" height="40" as="geometry"/>
                </mxCell>
                <mxCell id="11" value="cur" style="rounded=0;whiteSpace=wrap;html=1;dashed=1;" parent="1" vertex="1">
                    <mxGeometry x="263" y="460" width="50" height="40" as="geometry"/>
                </mxCell>
                <mxCell id="12" value="nextRequestTime = lastRequestTime + 每次请求花费的时间&lt;br&gt;如果nextRequestTime&amp;nbsp;&amp;gt; lastRequestTime&amp;nbsp;就需要睡眠；&amp;nbsp;&lt;br&gt;缺陷： 当设置每秒10个请求，那么他会严格按照 0.1一个请求放行，所以要引入slack（富余）" style="text;html=1;strokeColor=none;fillColor=none;align=center;verticalAlign=middle;whiteSpace=wrap;rounded=0;" parent="1" vertex="1">
                    <mxGeometry x="194" y="160" width="470" height="150" as="geometry"/>
                </mxCell>
                <mxCell id="14" value="引入slack(富余)版本， &amp;nbsp;初始化为设置的unit单位时间；&amp;nbsp;&lt;br&gt;每次睡眠之前睡眠时间需要减去slackTime;&lt;br&gt;如果时间间隔为 (now - last) 秒， 那么&lt;br&gt;slackTime需要补充&lt;br&gt;slack = (now - last) * per/unit&amp;nbsp;" style="text;html=1;strokeColor=none;fillColor=none;align=center;verticalAlign=middle;whiteSpace=wrap;rounded=0;" parent="1" vertex="1">
                    <mxGeometry x="172" y="550" width="470" height="150" as="geometry"/>
                </mxCell>
                <mxCell id="15" value="lastRequestTime" style="rounded=0;whiteSpace=wrap;html=1;fillColor=#1ba1e2;strokeColor=#006EAF;fontColor=#ffffff;" parent="1" vertex="1">
                    <mxGeometry x="260" y="80" width="100" height="40" as="geometry"/>
                </mxCell>
                <mxCell id="35" value="lastRequestTime" style="rounded=0;whiteSpace=wrap;html=1;fillColor=#1ba1e2;strokeColor=#006EAF;fontColor=#ffffff;" vertex="1" parent="1">
                    <mxGeometry x="263" y="360" width="100" height="40" as="geometry"/>
                </mxCell>
                <mxCell id="36" value="nextRequestTime" style="rounded=0;whiteSpace=wrap;html=1;dashed=1;" vertex="1" parent="1">
                    <mxGeometry x="503" y="420" width="120" height="40" as="geometry"/>
                </mxCell>
            </root>
        </mxGraphModel>
    </diagram>
</mxfile>